# AST/ASF file generated using VICON BodyLanguage
# -----------------------------------------------
:version 1.10
:name VICON
:units
  mass 1.0
  length 0.45
  angle deg
:documentation
   .ast/.asf automatically generated from VICON data using
   VICON BodyBuilder and BodyLanguage model FoxedUp or BRILLIANT.MOD
:root
   order TX TY TZ RX RY RZ
   axis XYZ
   position 0 0 0  
   orientation 0 0 0 
:bonedata
  begin
     id 1 
     name lhipjoint
     direction 0.702568 -0.596508 0.388042 
     length 2.56661 
     axis 0 0 0  XYZ
  end
  begin
     id 2 
     name lfemur
     direction 0.34202 -0.939693 0  
     length 6.58374  
     axis 0 0 20  XYZ
    dof rx ry rz
    limits (-160.0 20.0)
           (-70.0 70.0)
           (-60.0 70.0)
  end
  begin
     id 3 
     name ltibia
     direction 0.34202 -0.939693 0   
     length 6.62538   
     axis 0 0 20   XYZ
    dof rx
    limits (-10.0 170.0)
  end
  begin
     id 4 
     name lfoot
     direction 0.10455 -0.287249 0.952133   
     length 2.26699   
     axis -90 7.62852e-016 20   XYZ
    dof rx rz
    limits (-45.0 90.0)
           (-70.0 20.0)
  end
  begin
     id 5 
     name ltoes
     direction 1.53572e-011 -4.22322e-011 1   
     length 1.12949   
     axis -90 7.62852e-016 20   XYZ
    dof rx
    limits (-90.0 20.0)
  end
  begin
     id 6 
     name rhipjoint
     direction -0.728055 -0.574632 0.373811   
     length 2.66432  
     axis 0 0 0  XYZ 
  end
  begin
     id 7 
     name rfemur
     direction -0.34202 -0.939693 0   
     length 6.66732   
     axis 0 0 -20   XYZ
    dof rx ry rz
    limits (-160.0 20.0)
           (-70.0 70.0)
           (-70.0 60.0)
  end
  begin
     id 8 
     name rtibia
     direction -0.34202 -0.939693 0   
     length 6.59288   
     axis 0 0 -20   XYZ
    dof rx
    limits (-10.0 170.0)
 end
 begin
     id 9 
     name rfoot
     direction -0.119193 -0.327479 0.93731   
     length 2.38061  
     axis -90 -7.62852e-016 -20   XYZ
    dof rx rz
    limits (-45.0 90.0)
           (-20.0 70.0)
  end
  begin
     id 10 
     name rtoes
     direction -1.53547e-011 -4.21827e-011 1   
     length 1.17899   
     axis -90 -7.62852e-016 -20   XYZ
    dof rx
    limits (-90.0 20.0)
  end
  begin
     id 11 
     name lowerback
     direction -0.000416114 0.999912 -0.0132284   
     length 2.12109   
     axis 0 0 0   XYZ
    dof rx ry rz
    limits (-20.0 45.0)
           (-30.0 30.0)
           (-30.0 30.0)
  end
  begin
     id 12 
     name upperback
     direction -0.00136371 0.99809 0.0617608   
     length 2.10067   
     axis 0 0 0   XYZ
    dof rx ry rz
    limits (-20.0 45.0)
           (-30.0 30.0)
           (-30.0 30.0)
  end
  begin
     id 13 
     name thorax
     direction -3.43026e-005 0.997776 0.0666515   
     length 2.10618   
     axis 0 0 0   XYZ
    dof rx ry rz
    limits (-20.0 45.0)
           (-30.0 30.0)
           (-30.0 30.0)
  end
  begin
     id 14 
     name lowerneck
     direction 0.0398646 0.998418 0.0396592   
     length 1.83817   
     axis 0 0 0   XYZ
    dof rx ry rz
    limits (-20.0 45.0)
           (-30.0 30.0)
           (-30.0 30.0)
  end
  begin
     id 15 
     name upperneck
     direction -0.0367268 0.961527 -0.272244   
     length 1.81975   
     axis 0 0 0   XYZ
    dof rx ry rz
    limits (-20.0 45.0)
           (-30.0 30.0)
           (-30.0 30.0)
  end
  begin
     id 16
     name head
     direction -0.0182665 0.99536 -0.0944669  
     length 1.86026  
     axis 0 0 0   XYZ
    dof rx ry rz
    limits (-20.0 45.0)
           (-30.0 30.0)
           (-30.0 30.0)
  end
  begin
     id 17 
     name lclavicle
     direction 0.924239 0.361045 0.124212  
     length 3.26878  
     axis 0 0 0   XYZ
    dof ry rz
    limits (-20.0 10.0)
           (0.0 20.0)
  end
  begin
     id 18 
     name lhumerus
     direction 1 -4.48968e-011 -2.56583e-027   
     length 4.58538   
     axis 180 -30 -90   XYZ
    dof rx ry rz
    limits (-60.0 90.0)
           (-90.0 90.0)
           (-90.0 90.0)
  end
  begin
     id 19
     name lradius
     direction 1 -4.4898e-011 -5.50375e-027   
     length 2.68935   
     axis 180 -30 -90   XYZ
    dof rx
    limits (-10.0 170.0)
  end
  begin
     id 20
     name lwrist
     direction 1 -4.48939e-011 -1.48955e-026   
     length 1.34468   
     axis 9.0955e-015 90 90   XYZ
    dof ry
    limits (-180.0 0.0)
 end
  begin
     id 21 
     name lhand
     direction 1 -4.48936e-011 -2.97907e-026   
     length 0.585058   
     axis 1.90115e-014 90 90   XYZ
    dof rx rz
    limits (-90.0 90.0)
           (-45.0 45.0)
  end
  begin
     id 22 
     name lfingers
     direction 1 -4.49082e-011 -5.96235e-026   
     length 0.471689   
     axis 3.80223e-014 90 90   XYZ
    dof rx
    limits (0.0 90.0)
  end
  begin
     id 23
     name lthumb
     direction 0.707107 -6.3489e-011 0.707107   
     length 0.677253   
     axis -90 45 -3.84942e-014   XYZ
    dof rx rz
    limits (-45.0 45.0)
           (-45.0 45.0)
  end
  begin
     id 24 
     name rclavicle
     direction -0.923098 0.371783 0.0983239   
     length 3.19656  
     axis 0 0 0   XYZ 
    dof ry rz
    limits (-10.0 20.0)
           (-20.0 0.0)
  end
  begin
     id 25 
     name rhumerus
     direction -1 -4.48976e-011 -2.5492e-027  
     length 4.4745   
     axis 180 30 90   XYZ
    dof rx ry rz
    limits (-90.0 60.0)
           (-90.0 90.0)
           (-90.0 90.0)
  end
  begin
     id 26 
     name rradius
     direction -1 -4.48941e-011 -4.36555e-027   
     length 2.93896   
     axis 180 30 90   XYZ
    dof rx
    limits (-10.0 170.0)
  end
  begin
     id 27 
     name rwrist
     direction -1 -4.49044e-011 -1.49032e-026   
     length 1.46948   
     axis 9.0955e-015 -90 -90   XYZ
    dof ry
    limits (-180.0 0.0)
  end
  begin
     id 28
     name rhand
     direction -1 -4.48826e-011 -2.97749e-026   
     length 0.405092   
     axis 1.90115e-014 -90 -90   XYZ
    dof rx rz
    limits (-90.0 90.0)
           (-45.0 45.0)
  end
  begin
     id 29
     name rfingers
     direction -1 -4.49209e-011 -5.96602e-026   
     length 0.326596   
     axis 3.80223e-014 -90 -90   XYZ
    dof rx
    limits (0.0 90.0)
  end
  begin
     id 30
     name rthumb
     direction -0.707107 -6.34776e-011 0.707107   
     length 0.468928   
     axis -90 -45 3.84942e-014   XYZ
    dof rx rz
    limits (-45.0 45.0)
           (-45.0 45.0)
  end
:hierarchy
  begin
    root lhipjoint rhipjoint lowerback
    lhipjoint lfemur
    lfemur ltibia
    ltibia lfoot
    lfoot ltoes
    rhipjoint rfemur
    rfemur rtibia
    rtibia rfoot
    rfoot rtoes
    lowerback upperback
    upperback thorax
    thorax lowerneck lclavicle rclavicle
    lowerneck upperneck
    upperneck head
    lclavicle lhumerus
    lhumerus lradius
    lradius lwrist
    lwrist lhand lthumb
    lhand lfingers
    rclavicle rhumerus
    rhumerus rradius
    rradius rwrist
    rwrist rhand rthumb
    rhand rfingers
  end

#!OML:ASF H:\Punching\Project 1\Capture day 1\Session 1\female.ASF
:FULLY-SPECIFIED
:DEGREES
332
root 2.56572 15.5868 6.80884 12.3612 -8.24292 -0.187466
lowerback -1.83253 0.411685 -2.123
upperback -5.96505 0.518462 0.126785
thorax -5.15909 0.358412 1.30556
lowerneck -7.29808 2.72301 11.5944
upperneck 15.4018 3.15867 -6.43165
head 6.15451 1.72246 -3.72789
rclavicle -3.43564e-014 4.67144e-015
rhumerus -35.057 16.3829 -97.4445
rradius 59.8829
rwrist -54.9023
rhand -10.3936 -23.9048
rfingers 7.12502
rthumb 15.6045 -53.2954
lclavicle -3.43564e-014 4.67144e-015
lhumerus -40.8467 -12.5112 90.427
lradius 80.6764
lwrist -1.2071
lhand -14.1452 23.9871
lfingers 7.12502
lthumb 11.9891 53.6238
rfemur -29.7777 -4.35905 14.2197
rtibia 52.4927
rfoot -15.6984 -6.80652
rtoes -10.745
lfemur -14.0009 -2.4878 -22.9569
ltibia 25.0696
lfoot -22.8208 22.3585
ltoes 6.42962
333
root 2.54157 15.5874 6.82067 12.1822 -8.01385 -0.0938204
lowerback -1.66396 0.45656 -2.26919
upperback -5.92379 0.571124 0.0688774
thorax -5.21522 0.390543 1.32473
lowerneck -7.31849 2.54654 11.3883
upperneck 15.522 2.91012 -6.20766
head 6.16653 1.60816 -3.64202
rclavicle 1.4314e-014 1.0138e-014
rhumerus -34.5926 17.2174 -98.0939
rradius 61.6495
rwrist -57.8902
rhand -10.7713 -24.2336
rfingers 7.12502
rthumb 15.2408 -53.6522
lclavicle 1.4314e-014 1.0138e-014
lhumerus -40.1397 -13.9393 90.7761
lradius 83.1055
lwrist -1.18174
lhand -15.2437 23.7293
lfingers 7.12502
lthumb 10.9297 53.4248
rfemur -30.6178 -4.63476 14.046
rtibia 53.6602
rfoot -15.3129 -6.39941
rtoes -10.7991
lfemur -13.6431 -2.48932 -22.9501
ltibia 24.7847
lfoot -22.6261 22.2675
ltoes 6.07345
334
root 2.51589 15.5897 6.83651 12.0564 -7.75176 -0.0522845
lowerback -1.53744 0.491755 -2.35821
upperback -5.90681 0.612907 0.034364
thorax -5.27216 0.415369 1.33648
lowerneck -7.34508 2.37401 11.1824
upperneck 15.6712 2.67007 -6.00453
head 6.19078 1.49696 -3.56252
rclavicle 2.33883e-015 1.63003e-014
rhumerus -34.1133 18.1053 -98.7748
rradius 63.4023
rwrist -60.7686
rhand -11.1921 -24.2676
rfingers 7.12502
rthumb 14.8354 -53.7165
lclavicle 2.33883e-015 1.63003e-014
lhumerus -39.4084 -15.3689 91.149
lradius 85.5088
lwrist -1.11017
lhand -16.2982 23.3792
lfingers 7.12502
lthumb 9.91245 53.1259
rfemur -31.4184 -4.87769 13.913
rtibia 54.5195
rfoot -15.0403 -6.05787
rtoes -10.9385
lfemur -13.3414 -2.5062 -22.8764
ltibia 24.5378
lfoot -22.4532 22.1727
ltoes 5.70355
335
root 2.48869 15.5936 6.85462 11.9863 -7.45208 -0.0659732
lowerback -1.46264 0.526154 -2.37552
upperback -5.90268 0.656479 0.0153968
thorax -5.31234 0.438023 1.3244
lowerneck -7.37938 2.19804 10.9742
upperneck 15.8322 2.42698 -5.8148
head 6.22095 1.38338 -3.48733
rclavicle -3.63714e-015 7.25564e-015
rhumerus -33.586 19.0005 -99.4639
rradius 65.1319
rwrist -63.4776
rhand -11.4703 -24.3954
rfingers 7.12502
rthumb 14.5674 -53.8639
lclavicle -3.63714e-015 7.25564e-015
lhumerus -38.6159 -16.84 91.5474
lradius 87.8629
lwrist -0.991399
lhand -17.3474 22.9342
lfingers 7.12502
lthumb 8.90016 52.7265
rfemur -32.1863 -5.07856 13.8228
rtibia 55.0483
rfoot -14.8031 -5.80693
rtoes -11.1555
lfemur -13.1057 -2.54791 -22.7299
ltibia 24.3229
lfoot -22.2892 22.0817
ltoes 5.32806
336
root 2.46036 15.599 6.87504 11.9574 -7.11959 -0.120914
lowerback -1.42292 0.557995 -2.33525
upperback -5.91015 0.698992 0.0104077
thorax -5.34387 0.457771 1.29481
lowerneck -7.41945 2.01962 10.7653
upperneck 16.0017 2.1825 -5.64052
head 6.25576 1.2681 -3.41722
rclavicle 1.98971e-014 9.44227e-015
rhumerus -33.0137 19.907 -100.159
rradius 66.8306
rwrist -65.9946
rhand -11.5623 -24.5683
rfingers 7.12502
rthumb 14.4788 -54.0432
lclavicle 1.98971e-014 9.44227e-015
lhumerus -37.7745 -18.3435 91.9759
lradius 90.1595
lwrist -0.854742
lhand -18.4093 22.4116
lfingers 7.12502
lthumb 7.87534 52.2449
rfemur -32.903 -5.23133 13.7503
rtibia 55.2358
rfoot -14.5565 -5.63559
rtoes -11.3469
lfemur -12.9196 -2.61453 -22.529
ltibia 24.1315
lfoot -22.1258 22.0033
ltoes 4.93029
337
root 2.43096 15.6052 6.89715 11.9579 -6.74714 -0.208271
lowerback -1.40697 0.585814 -2.24271
upperback -5.92229 0.738167 0.0167258
thorax -5.36577 0.47358 1.24798
lowerneck -7.47201 1.83901 10.5503
upperneck 16.1769 1.93611 -5.47632
head 6.29535 1.15083 -3.34958
rclavicle -5.53336e-015 -1.39149e-015
rhumerus -32.3837 20.8277 -100.848
rradius 68.5003
rwrist -68.3011
rhand -11.4158 -25.0496
rfingers 7.12502
rthumb 14.6199 -54.5143
lclavicle -5.53336e-015 -1.39149e-015
lhumerus -36.8685 -19.8981 92.4317
lradius 92.3727
lwrist -0.71787
lhand -19.5022 21.8228
lfingers 7.12502
lthumb 6.82038 51.693
rfemur -33.5514 -5.33805 13.6808
rtibia 55.0834
rfoot -14.2637 -5.55006
rtoes -11.3979
lfemur -12.7734 -2.72186 -22.2821
ltibia 23.9631
lfoot -21.9679 21.9462
ltoes 4.51913
338
root 2.40029 15.6117 6.92039 11.9654 -6.35449 -0.319843
lowerback -1.40013 0.617291 -2.11121
upperback -5.92779 0.78373 0.0321251
thorax -5.37499 0.490756 1.18868
lowerneck -7.53358 1.65393 10.3241
upperneck 16.3467 1.68507 -5.31821
head 6.3353 1.03005 -3.28237
rclavicle -5.28022e-015 -3.47873e-015
rhumerus -31.683 21.7702 -101.513
rradius 70.1519
rwrist -70.3921
rhand -11.0942 -25.7272
rfingers 7.12502
rthumb 14.9298 -55.1692
lclavicle -5.28022e-015 -3.47873e-015
lhumerus -35.8933 -21.5048 92.9078
lradius 94.4946
lwrist -0.611957
lhand -20.5549 21.2017
lfingers 7.12502
lthumb 5.8041 51.1022
rfemur -34.1101 -5.37627 13.5971
rtibia 54.6037
rfoot -13.9375 -5.55766
rtoes -11.3911
lfemur -12.641 -2.8506 -22.0004
ltibia 23.8104
lfoot -21.8175 21.9058
ltoes 4.10891
339
root 2.36859 15.6183 6.94447 11.9827 -5.9267 -0.432368
lowerback -1.39968 0.64234 -1.96148
upperback -5.93158 0.821463 0.0526967
thorax -5.37805 0.503221 1.12488
lowerneck -7.60201 1.46665 10.085
upperneck 16.5132 1.43279 -5.16441
head 6.37623 0.907512 -3.21453
rclavicle -9.68609e-015 4.27387e-015
rhumerus -30.9139 22.7709 -102.153
rradius 71.7854
rwrist -72.2571
rhand -10.6909 -26.4616
rfingers 7.12502
rthumb 15.3183 -55.8743
lclavicle -9.68609e-015 4.27387e-015
lhumerus -34.8538 -23.1469 93.3938
lradius 96.509
lwrist -0.568609
lhand -21.5597 20.5248
lfingers 7.12502
lthumb 4.83396 50.4497
rfemur -34.5806 -5.37165 13.4726
rtibia 53.819
rfoot -13.6257 -5.63914
rtoes -11.317
lfemur -12.5289 -3.0039 -21.7071
ltibia 23.6678
lfoot -21.6664 21.865
ltoes 3.69542
340
root 2.33521 15.6246 6.96933 12.0057 -5.48663 -0.536647
lowerback -1.39902 0.664309 -1.82009
upperback -5.93379 0.85521 0.0791179
thorax -5.37959 0.514242 1.07196
lowerneck -7.67968 1.27919 9.8337
upperneck 16.6763 1.18176 -5.01489
head 6.41874 0.784412 -3.14601
rclavicle 1.26912e-014 7.95139e-016
rhumerus -30.0702 23.8657 -102.759
rradius 73.4047
rwrist -73.917
rhand -10.3983 -26.7287
rfingers 7.12502
rthumb 15.6 -56.1196
lclavicle 1.26912e-014 7.95139e-016
lhumerus -33.7601 -24.8081 93.8813
lradius 98.4185
lwrist -0.593598
lhand -22.5304 19.7689
lfingers 7.12502
lthumb 3.89656 49.713
rfemur -34.968 -5.29921 13.2933
rtibia 52.7595
rfoot -13.3471 -5.80169
rtoes -11.0902
lfemur -12.4245 -3.16201 -21.4131
ltibia 23.5217
lfoot -21.5138 21.8177
ltoes 3.29051
341
root 2.29995 15.6302 6.99502 12.022 -5.04641 -0.626034
lowerback -1.39492 0.689124 -1.69355
upperback -5.92861 0.892542 0.105814
thorax -5.37561 0.527689 1.02752
lowerneck -7.75823 1.08744 9.56918
upperneck 16.8294 0.926437 -4.86404
head 6.45888 0.658394 -3.07516
rclavicle -3.65267e-015 8.24956e-015
rhumerus -29.1304 25.0476 -103.31
rradius 74.9915
rwrist -75.3278
rhand -10.0959 -26.917
rfingers 7.12502
rthumb 15.8913 -56.2849
lclavicle -3.65267e-015 8.24956e-015
lhumerus -32.6159 -26.4871 94.3635
lradius 100.223
lwrist -0.686503
lhand -23.4497 18.9251
lfingers 7.12502
lthumb 3.00882 48.8836
rfemur -35.2677 -5.14894 13.0489
rtibia 51.459
rfoot -13.0996 -6.05421
rtoes -10.724
lfemur -12.3103 -3.30954 -21.1276
ltibia 23.3671
lfoot -21.361 21.753
ltoes 2.8958
342
root 2.26294 15.6349 7.02334 12.021 -4.61906 -0.689441
lowerback -1.36941 0.712747 -1.60372
upperback -5.92509 0.927303 0.134233
thorax -5.38624 0.541787 1.00518
lowerneck -7.84184 0.895726 9.30327
upperneck 16.9878 0.672646 -4.72223
head 6.50286 0.532407 -3.00709
rclavicle -7.53052e-015 -1.08338e-014
rhumerus -28.1055 26.3387 -103.808
rradius 76.5301
rwrist -76.5029
rhand -9.91844 -26.6673
rfingers 7.12502
rthumb 16.0622 -56.0216
lclavicle -7.53052e-015 -1.08338e-014
lhumerus -31.4711 -28.1478 94.8493
lradius 101.945
lwrist -0.849402
lhand -24.3063 18.013
lfingers 7.12502
lthumb 2.18158 47.9816
rfemur -35.4731 -4.92634 12.7241
rtibia 49.9569
rfoot -12.8822 -6.39567
rtoes -10.207
lfemur -12.1609 -3.44394 -20.8674
ltibia 23.1978
lfoot -21.2183 21.6746
ltoes 2.51353
343
root 2.22392 15.6385 7.05301 12.0075 -4.19889 -0.737361
lowerback -1.32969 0.741809 -1.53163
upperback -5.91961 0.968753 0.159838
thorax -5.40336 0.560024 0.989422
lowerneck -7.92247 0.696755 9.03303
upperneck 17.1444 0.410157 -4.58135
head 6.54623 0.401915 -2.93937
rclavicle -3.51911e-015 -1.25234e-014
rhumerus -26.9677 27.6935 -104.226
rradius 78.0011
rwrist -77.3843
rhand -9.74488 -26.2806
rfingers 7.12502
rthumb 16.2293 -55.6213
lclavicle -3.51911e-015 -1.25234e-014
lhumerus -30.3165 -29.8273 95.3293
lradius 103.583
lwrist -1.04477
lhand -25.1096 17.0507
lfingers 7.12502
lthumb 1.40568 47.0258
rfemur -35.6025 -4.63174 12.3374
rtibia 48.2919
rfoot -12.6601 -6.85478
rtoes -9.58376
lfemur -11.9841 -3.5742 -20.6178
ltibia 23.0073
lfoot -21.0742 21.5876
ltoes 2.13544
344
root 2.18301 15.6412 7.08408 11.9851 -3.78977 -0.769821
lowerback -1.28632 0.776462 -1.48247
upperback -5.90984 1.01735 0.186555
thorax -5.41872 0.582918 0.987324
lowerneck -7.99336 0.490064 8.75469
upperneck 17.293 0.139767 -4.44318
head 6.58592 0.266864 -2.87178
rclavicle -1.32611e-014 4.67144e-015
rhumerus -25.7071 29.1036 -104.539
rradius 79.3864
rwrist -77.952
rhand -9.52072 -25.7465
rfingers 7.12502
rthumb 16.4451 -55.0694
lclavicle -1.32611e-014 4.67144e-015
lhumerus -29.1634 -31.5146 95.8028
lradius 105.151
lwrist -1.26345
lhand -25.8322 16.0567
lfingers 7.12502
lthumb 0.707835 46.0353
rfemur -35.6728 -4.26821 11.8919
rtibia 46.5056
rfoot -12.39 -7.44155
rtoes -8.90312
lfemur -11.7775 -3.70664 -20.3801
ltibia 22.7848
lfoot -20.9247 21.502
ltoes 1.75366
